<svg viewBox="0 0 96 96" xmlns="http://www.w3.org/2000/svg" xmlns:xlink="http://www.w3.org/1999/xlink" id="Icons_Cat_M" overflow="hidden"><g id="Icons"><path d="M50.112 81.15C50.0683 81.144 50.0242 81.141 49.98 81.141L46.02 81.141C50.0943 78.178 52.5113 73.4497 52.527 68.412 52.527 61.584 51.043 58.583 46.42 56.061 45.9416 55.7851 45.3301 55.9492 45.0541 56.4276 44.7782 56.906 44.9423 57.5175 45.4207 57.7935 45.4343 57.8013 45.4481 57.8088 45.462 57.816 49.438 59.986 50.527 62.264 50.527 68.416 50.527 75.236 46 79.171 42.202 81.27 41.7188 81.5374 41.5438 82.1459 41.8111 82.6291 41.9872 82.9474 42.3223 83.145 42.686 83.145L49.907 83.145C50.9495 83.3291 51.659 84.3056 51.512 85.354 51.3247 86.3448 50.447 87.0539 49.439 87.029L35.823 87.029C35.391 87.029 33.414 86.26 31.628 82.5 31.628 82.49 31.614 82.485 31.609 82.475 31.5744 82.4178 31.5342 82.3642 31.489 82.315 31.4512 82.2608 31.4079 82.2105 31.36 82.165 31.352 82.158 31.348 82.147 31.339 82.14 31.1 81.954 30.825 81.745 30.521 81.514 26.781 78.67 19 72.762 19 64 19 58.855 21.127 54.957 23.185 51.187 23.418 50.759 23.65 50.335 23.876 49.912 28.241 41.768 27.689 33.721 22.399 28.385 22.0168 27.9863 21.3838 27.973 20.9851 28.3552 20.5864 28.7374 20.5731 29.3704 20.9553 29.7691 20.963 29.7772 20.971 29.7852 20.979 29.793 25.686 34.541 26.1 41.53 22.114 48.967 21.8887 49.385 21.6603 49.8057 21.429 50.229 19.353 54.033 17 58.345 17 64 17 73.754 25.627 80.305 29.311 83.1 29.546 83.278 29.748 83.433 29.945 83.585 31.791 87.328 34.211 89.022 35.823 89.022L49.439 89.022C51.4533 89.0565 53.1842 87.5996 53.494 85.609 53.7864 83.4451 52.2746 81.4519 50.112 81.15Z" stroke="#F4B183" stroke-width="1.33335"/><path d="M65.6 58.886C65.6 58.911 65.239 61.416 62.264 66.359 62.099 66.633 61.764 67.211 61.764 67.211 61.6594 67.3654 61.6011 67.5465 61.596 67.733L61.596 82C61.596 82.5523 62.0437 83 62.596 83L63.483 83C64.4884 82.9771 65.3662 83.6768 65.568 84.662 65.7547 85.7507 65.0235 86.7846 63.9348 86.9712 63.8242 86.9902 63.7122 86.9998 63.6 87L59.527 87C58.4224 87 57.527 86.1046 57.527 85L57.527 72.393C57.527 71.8407 57.0793 71.393 56.527 71.393 55.9747 71.393 55.527 71.8407 55.527 72.393L55.527 85C55.527 87.2091 57.3179 89 59.527 89L63.418 89C65.5194 89.0357 67.3111 87.4848 67.577 85.4 67.7952 83.1989 66.1876 81.2377 63.9865 81.0195 63.8581 81.0068 63.7291 81.0003 63.6 81L63.6 68.015C67.033 62.479 67.537 59.524 67.588 59.156 68.068 56.8936 68.2735 54.5816 68.2 52.27L68.2 51.741C68.2777 48.7829 67.8575 45.8328 66.957 43.014 66.4888 41.7006 66.246 40.3174 66.239 38.923 66.3025 37.2967 67.6631 36.0244 69.29 36.07 74.1137 35.9766 77.9808 32.0496 78 27.225 78.0209 26.3828 77.7507 25.5592 77.235 24.893L69.176 13.186 69.176 10.069C69.1965 9.33926 68.8275 8.65367 68.207 8.269 67.4421 7.81514 66.4683 7.92765 65.827 8.544L52.3 21.2C50.5341 22.8677 49.5333 25.1891 49.533 27.618L49.533 28.206C49.533 30.725 46.764 32.971 43.258 35.814 36.39 41.385 26.983 49.014 26.983 66.451 26.9285 69.5688 27.1646 72.6849 27.688 75.759 27.7781 76.2298 28.1896 76.5704 28.669 76.571 28.7328 76.5711 28.7965 76.5647 28.859 76.552 29.4009 76.4476 29.7558 75.924 29.652 75.382 29.153 72.4321 28.929 69.4423 28.983 66.451 28.983 49.967 37.962 42.685 44.518 37.368 48.437 34.189 51.533 31.678 51.533 28.206L51.533 27.618C51.5317 25.7421 52.3037 23.9486 53.667 22.66L67.167 9.982C67.1709 9.97813 67.1773 9.9782 67.1811 9.98214 67.1829 9.98397 67.184 9.98643 67.184 9.989L67.184 13.5C67.1842 13.7026 67.2459 13.9003 67.361 14.067L75.639 26.088C76.274 26.882 76.073 28.088 75.158 30.052 74.0391 32.4225 71.6952 33.9744 69.076 34.079 66.43 34.1378 64.2996 36.27 64.243 38.916 64.2486 40.5092 64.5189 42.0904 65.043 43.595 65.8887 46.2249 66.28 48.9797 66.2 51.741L66.2 52.279C66.2716 54.4582 66.0788 56.6381 65.626 58.771Z" stroke="#F4B183" stroke-width="1.33335"/><circle cx="68.499" cy="21.5" r="1.5" stroke="#F4B183" stroke-width="1.33335"/></g></svg>