<svg viewBox="0 0 96 96" xmlns="http://www.w3.org/2000/svg" xmlns:xlink="http://www.w3.org/1999/xlink" id="Icons_Dog_M" overflow="hidden"><g id="Icons"><path d="M92.4174 29.011 86.6527 26.407C85.5145 22.5755 82.0023 19.9407 78.0053 19.92L73.9789 19.92 73.0829 19.9439C71.4691 19.9911 69.9416 20.6833 68.8422 21.8656L62.5522 28.6637C61.2598 30.0898 59.4289 30.9093 57.5043 30.923L27.5717 30.923C24.1255 30.9267 20.9483 32.7857 19.2567 35.7882 13.9006 36.1942 6.8407 32.2909 4.8676 25.7125 4.7089 25.1834 4.15134 24.8832 3.62225 25.0418 3.09316 25.2005 2.7929 25.7581 2.9516 26.2872 5.1136 33.4942 12.3323 37.795 18.4008 37.8282 18.1517 38.6827 18.0243 39.5681 18.0224 40.4582L18.0024 49.8771 16.0356 57.7719C16.0156 57.8509 16.0055 57.9321 16.0056 58.0136L16.0056 66C16.0058 66.0818 16.0158 66.1633 16.0356 66.2427L17.4677 71.9697C17.9106 73.7516 19.5115 75.0019 21.3477 74.9997L26.0015 74.9997C26.5535 74.9997 27.0011 74.5524 27.0015 74.0004L27.0034 71.4018C27.0042 69.6789 25.7166 68.2276 24.0059 68.0231L24.0059 60.4143 31.4233 52.9961 38.25 52.9321C40.6567 54.8145 44.6362 55.9294 49.0034 55.9294L56.0054 55.9294 56.0054 66C56.0056 66.0818 56.0156 66.1633 56.0354 66.2427L57.4675 71.9697C57.9104 73.7516 59.5113 75.0019 61.3475 74.9997L66.0013 74.9997C66.5533 74.9997 67.0009 74.5524 67.0013 74.0004L67.0032 71.4018C67.004 69.6789 65.7164 68.2276 64.0057 68.0231L64.0057 55.8728C65.4135 55.6293 66.7675 55.1399 68.0057 54.427L68.0057 69C68.0057 69.5523 68.4534 70 69.0057 70L69.6033 70C70.3765 70 71.0033 70.6268 71.0033 71.4 71.0033 71.4002 71.0033 71.4004 71.0033 71.4006L71.0028 73 69.0058 73C68.4535 73 68.0058 73.4477 68.0058 74 68.0058 74.5523 68.4535 75 69.0058 75L72.0019 75C72.5539 75 73.0015 74.5527 73.0019 74.0007L73.0038 71.4021C73.0046 69.6792 71.717 68.2279 70.0063 68.0234L70.0063 52.769C71.5361 50.754 72.8522 48.5853 73.9335 46.2981L77.682 36.9238 86.0053 36.9238C89.8698 36.9188 93.0011 33.7869 93.0053 29.9224 93.0054 29.5295 92.7754 29.1729 92.4174 29.011ZM86.0053 34.9238 77.0048 34.9238C76.5958 34.9237 76.228 35.1727 76.0761 35.5525L72.0961 45.5107C71.0494 47.7117 69.7736 49.7963 68.29 51.73 66.7917 53.0334 64.9185 53.8279 62.94 53.9991 62.415 54.0349 62.0072 54.4707 62.0064 54.9969L62.0064 69C62.0064 69.5523 62.4541 70 63.0064 70L63.604 70C64.3772 70 65.004 70.6268 65.004 71.4 65.004 71.4002 65.004 71.4004 65.004 71.4006L65.0028 73 61.3481 73C60.43 73.0012 59.6294 72.376 59.4081 71.4849L58.0058 65.877 58.0058 54.9294C58.0058 54.3771 57.5581 53.9294 57.0058 53.9294L49.0038 53.9294C44.9145 53.9294 41.2694 52.8977 39.2538 51.1694 39.0699 51.0124 38.8356 50.9269 38.5938 50.9287L30.9965 51C30.7345 51.0024 30.4839 51.1076 30.2987 51.293L22.2987 59.293C22.1112 59.4805 22.0058 59.7348 22.0058 60L22.0058 69C22.0058 69.5523 22.4535 70 23.0058 70L23.6034 70C24.3766 70 25.0034 70.6268 25.0034 71.4 25.0034 71.4002 25.0034 71.4004 25.0034 71.4006L25.0028 73 21.3481 73C20.43 73.0012 19.6294 72.376 19.4081 71.4849L18.0058 65.877 18.0058 58.137 19.9726 50.242C19.9926 50.163 20.0026 50.0818 20.0026 50.0003L20.0026 41.9392 20.0226 40.4722C20.0274 36.3048 23.4045 32.9277 27.5719 32.9229L57.5043 32.9229C59.9981 32.9194 62.3732 31.8574 64.0385 30.0012L70.31 23.2239C70.5817 22.928 70.9054 22.6847 71.2651 22.5059L70.9413 27.2908C70.7786 29.714 72.6079 31.8116 75.0307 31.98L75.2307 31.9937C75.3332 32.0008 75.4354 32.0041 75.5373 32.0037 77.8484 32.0003 79.763 30.2095 79.9206 27.9037L80.0979 25.3097C80.1442 24.7594 79.7357 24.2757 79.1853 24.2293 78.635 24.183 78.1513 24.5915 78.105 25.1419 78.1041 25.1524 78.1034 25.1629 78.1028 25.1734L77.9255 27.7674C77.8353 29.0898 76.6901 30.0887 75.3677 29.9984 75.3676 29.9984 75.3675 29.9984 75.3674 29.9984L75.1674 29.9847C73.8458 29.8927 72.8479 28.7485 72.9364 27.4266L73.3113 21.942 78.0053 21.9193C81.2603 21.9342 84.0816 24.1765 84.831 27.3441 84.9005 27.6491 85.1089 27.9039 85.394 28.0326L90.9667 30.55C90.6475 33.0478 88.5235 34.9204 86.0053 34.9238Z" stroke="#F4B183" stroke-width="1.33335"/><path d="M30.0063 68.0234 30.0063 58C30.0063 57.4477 29.5586 57 29.0063 57 28.454 57 28.0063 57.4477 28.0063 58L28.0063 69C28.0063 69.5523 28.454 70 29.0063 70L29.6039 70C30.3771 70 31.0039 70.6268 31.0039 71.4 31.0039 71.4002 31.0039 71.4004 31.0039 71.4006L31.0028 73 29.0058 73C28.4535 73 28.0058 73.4477 28.0058 74 28.0058 74.5523 28.4535 75 29.0058 75L32.0019 75C32.5539 75 33.0015 74.5527 33.0019 74.0007L33.0038 71.4021C33.0046 69.6792 31.717 68.2279 30.0063 68.0234Z" stroke="#F4B183" stroke-width="1.33335"/><circle cx="82.5038" cy="28.5" r="1.5" stroke="#F4B183" stroke-width="1.33335"/></g></svg>